<svg width="21" height="21" viewBox="0 0 21 21" fill="none" xmlns="http://www.w3.org/2000/svg">
<path d="M15.2045 0H5.79508C2.59968 0 0 2.5998 0 5.79521V15.2047C0 18.4002 2.59968 20.9999 5.79508 20.9999H15.2045C18.4002 20.9999 20.9999 18.4001 20.9999 15.2047V5.79521C21 2.5998 18.4002 0 15.2045 0ZM19.1368 15.2047C19.1368 17.3728 17.3728 19.1367 15.2047 19.1367H5.79508C3.62705 19.1368 1.86321 17.3728 1.86321 15.2047V5.79521C1.86321 3.62717 3.62705 1.86321 5.79508 1.86321H15.2045C17.3727 1.86321 19.1367 3.62717 19.1367 5.79521V15.2047H19.1368Z" fill="#2D4FA6"/>
<path d="M10.5 5.08899C7.51626 5.08899 5.08887 7.51638 5.08887 10.5001C5.08887 13.4837 7.51626 15.911 10.5 15.911C13.4838 15.911 15.9111 13.4837 15.9111 10.5001C15.9111 7.51638 13.4838 5.08899 10.5 5.08899ZM10.5 14.0477C8.54376 14.0477 6.95208 12.4562 6.95208 10.5C6.95208 8.54363 8.54363 6.95208 10.5 6.95208C12.4564 6.95208 14.0479 8.54363 14.0479 10.5C14.0479 12.4562 12.4563 14.0477 10.5 14.0477Z" fill="#2D4FA6"/>
<path d="M16.1383 3.50903C15.7793 3.50903 15.4267 3.65436 15.1732 3.909C14.9184 4.1624 14.772 4.51517 14.772 4.87539C14.772 5.23449 14.9185 5.58713 15.1732 5.84177C15.4266 6.09517 15.7793 6.24174 16.1383 6.24174C16.4985 6.24174 16.8501 6.09517 17.1047 5.84177C17.3593 5.58713 17.5047 5.23437 17.5047 4.87539C17.5047 4.51517 17.3593 4.1624 17.1047 3.909C16.8513 3.65436 16.4985 3.50903 16.1383 3.50903Z" fill="#2D4FA6"/>
</svg>
