<svg width="242" height="243" viewBox="0 0 242 243" fill="none" xmlns="http://www.w3.org/2000/svg">
<path fill-rule="evenodd" clip-rule="evenodd" d="M236.852 242.005H5.14895C2.3054 242.005 0 239.699 0 236.856V91.9368H0.00318426C0.00318426 90.3128 0.767407 88.7844 2.0634 87.8132L117.916 1.02931C119.744 -0.343104 122.26 -0.343104 124.087 1.02931L239.944 87.8164C241.24 88.7876 242.004 90.316 242.001 91.9368V236.856C242.001 239.699 239.698 242.005 236.852 242.005ZM121.003 11.5815L13.7407 91.9363L49.4235 118.665V69.6687H192.588V118.665L228.264 91.9363L121.003 11.5815ZM59.7206 79.967V126.378L121.002 172.288L182.286 126.381V79.967H59.7206ZM231.703 102.228L124.088 182.84C123.174 183.528 120.569 184.7 117.917 182.84L10.2984 102.221V231.706H231.703V102.228ZM91.5504 121.156H151.418V131.454H91.5504V121.156ZM91.5504 98.0187H151.418V108.317H91.5504V98.0187Z" fill="#458EC4"/>
</svg>
