<svg width="20" height="20" viewBox="0 0 20 20" fill="none" xmlns="http://www.w3.org/2000/svg">
<path d="M0.726645 0.960872L4.78914 0.0233716C5.23055 -0.0781908 5.68368 0.152278 5.86336 0.56634L7.73836 4.94134C7.90243 5.32415 7.79305 5.77337 7.46883 6.03509L5.10164 7.97259C6.50789 10.9687 8.96492 13.4609 12.0235 14.8945L13.961 12.5273C14.2266 12.2031 14.672 12.0937 15.0548 12.2577L19.4298 14.1327C19.8477 14.3163 20.0782 14.7695 19.9766 15.2109L19.0391 19.2734C18.9415 19.6952 18.5665 19.9999 18.1251 19.9999C8.12117 19.9999 8.01086e-05 11.8945 8.01086e-05 1.87493C8.01086e-05 1.43743 0.300863 1.05853 0.726645 0.960872Z" fill="#2D4FA6"/>
</svg>
