<svg width="68" height="52" viewBox="0 0 68 52" fill="none" xmlns="http://www.w3.org/2000/svg">
<path d="M65.7236 40.7603H65.6501V34.8121C65.6501 19.9674 55.2794 7.10107 40.8758 3.91211C40.7993 3.14459 40.4708 2.43059 39.9248 1.86547C39.2685 1.18627 38.3871 0.812134 37.4425 0.812134H30.5575C29.6129 0.812134 28.7315 1.18627 28.0752 1.86547C27.5294 2.43059 27.2007 3.14459 27.1242 3.91211C12.7206 7.10107 2.34985 19.9674 2.34985 34.8121V40.7603H2.27641C1.02106 40.7603 0 41.7815 0 43.0367V44.5345C0 45.5257 0.627008 46.3966 1.56015 46.7016C10.4082 49.5947 21.9291 51.1879 34 51.1879C46.0709 51.1879 57.5917 49.5947 66.4398 46.7016C67.373 46.3966 68 45.5257 68 44.5345V43.0367C68 41.7815 66.9788 40.7603 65.7236 40.7603ZM29.6597 3.39613C29.897 3.15056 30.2159 3.01509 30.5575 3.01509H37.4424C37.784 3.01509 38.1028 3.1503 38.3402 3.39613C38.5775 3.64184 38.7018 3.96524 38.69 4.30656L37.6772 33.6802C37.6538 34.3562 37.1058 34.8857 36.4295 34.8857H31.5706C30.8943 34.8857 30.3463 34.3562 30.323 33.6803L29.3101 4.3067C29.2982 3.9651 29.4224 3.64184 29.6597 3.39613ZM65.797 44.5347C65.797 44.5643 65.7842 44.5984 65.7553 44.6078C57.1223 47.4304 45.8446 48.9849 34 48.9849C22.1554 48.9849 10.8777 47.4304 2.2448 44.6076C2.21598 44.5982 2.20309 44.5641 2.20309 44.5345V43.0367C2.20309 42.9962 2.23603 42.9632 2.27654 42.9632H44.5745C45.1828 42.9632 45.6761 42.4701 45.6761 41.8617C45.6761 41.2534 45.1829 40.7601 44.5745 40.7601H4.55295V34.8121C4.55295 23.7415 10.7522 13.8543 20.1127 8.83773L22.5028 25.5693C22.5814 26.1188 23.0525 26.5152 23.592 26.5152C23.6438 26.5152 23.6963 26.5115 23.7491 26.504C24.3514 26.418 24.7699 25.86 24.6839 25.2579L22.1936 7.82516C23.7795 7.13082 25.4426 6.57181 27.1697 6.16222L28.1213 33.7564C28.1857 35.6249 29.7009 37.0888 31.5707 37.0888H36.4297C38.2994 37.0888 39.8145 35.6249 39.8791 33.7564L40.8307 6.16235C42.5576 6.57208 44.2209 7.13109 45.8068 7.8253L43.3165 25.258C43.2306 25.8603 43.6491 26.4181 44.2513 26.5042C44.3041 26.5116 44.3566 26.5153 44.4084 26.5153C44.9477 26.5153 45.419 26.1188 45.4976 25.5694L47.8877 8.83786C57.2482 13.8543 63.4475 23.7414 63.4475 34.8121V40.7603H56.3241C55.7158 40.7603 55.2225 41.2534 55.2225 41.8618C55.2225 42.4701 55.7156 42.9634 56.3241 42.9634H65.7239C65.7644 42.9634 65.7973 42.9963 65.7973 43.0368V44.5347H65.797Z" fill="#2D4FA6"/>
</svg>
