<svg width="68" height="68" viewBox="0 0 68 68" fill="none" xmlns="http://www.w3.org/2000/svg">
<path d="M65.7236 48.7603H65.6501V42.8121C65.6501 27.9674 55.2794 15.1011 40.8758 11.9121C40.7993 11.1446 40.4708 10.4306 39.9248 9.86547C39.2685 9.18627 38.3871 8.81213 37.4425 8.81213H30.5575C29.6129 8.81213 28.7315 9.18627 28.0752 9.86547C27.5294 10.4306 27.2007 11.1446 27.1242 11.9121C12.7206 15.1011 2.34985 27.9674 2.34985 42.8121V48.7603H2.27641C1.02106 48.7603 0 49.7815 0 51.0367V52.5345C0 53.5257 0.627008 54.3966 1.56015 54.7016C10.4082 57.5947 21.9291 59.1879 34 59.1879C46.0709 59.1879 57.5917 57.5947 66.4398 54.7016C67.373 54.3966 68 53.5257 68 52.5345V51.0367C68 49.7815 66.9788 48.7603 65.7236 48.7603ZM29.6597 11.3961C29.897 11.1506 30.2159 11.0151 30.5575 11.0151H37.4424C37.784 11.0151 38.1028 11.1503 38.3402 11.3961C38.5775 11.6418 38.7018 11.9652 38.69 12.3066L37.6772 41.6802C37.6538 42.3562 37.1058 42.8857 36.4295 42.8857H31.5706C30.8943 42.8857 30.3463 42.3562 30.323 41.6803L29.3101 12.3067C29.2982 11.9651 29.4224 11.6418 29.6597 11.3961ZM65.797 52.5347C65.797 52.5643 65.7842 52.5984 65.7553 52.6078C57.1223 55.4304 45.8446 56.9849 34 56.9849C22.1554 56.9849 10.8777 55.4304 2.2448 52.6076C2.21598 52.5982 2.20309 52.5641 2.20309 52.5345V51.0367C2.20309 50.9962 2.23603 50.9632 2.27654 50.9632H44.5745C45.1828 50.9632 45.6761 50.4701 45.6761 49.8617C45.6761 49.2534 45.1829 48.7601 44.5745 48.7601H4.55295V42.8121C4.55295 31.7415 10.7522 21.8543 20.1127 16.8377L22.5028 33.5693C22.5814 34.1188 23.0525 34.5152 23.592 34.5152C23.6438 34.5152 23.6963 34.5115 23.7491 34.504C24.3514 34.418 24.7699 33.86 24.6839 33.2579L22.1936 15.8252C23.7795 15.1308 25.4426 14.5718 27.1697 14.1622L28.1213 41.7564C28.1857 43.6249 29.7009 45.0888 31.5707 45.0888H36.4297C38.2994 45.0888 39.8145 43.6249 39.8791 41.7564L40.8307 14.1624C42.5576 14.5721 44.2209 15.1311 45.8068 15.8253L43.3165 33.258C43.2306 33.8603 43.6491 34.4181 44.2513 34.5042C44.3041 34.5116 44.3566 34.5153 44.4084 34.5153C44.9477 34.5153 45.419 34.1188 45.4976 33.5694L47.8877 16.8379C57.2482 21.8543 63.4475 31.7414 63.4475 42.8121V48.7603H56.3241C55.7158 48.7603 55.2225 49.2534 55.2225 49.8618C55.2225 50.4701 55.7156 50.9634 56.3241 50.9634H65.7239C65.7644 50.9634 65.7973 50.9963 65.7973 51.0368V52.5347H65.797Z" fill="#ffffff"/>
<path d="M51.6244 48.7603H49.2744C48.6661 48.7603 48.1729 49.2534 48.1729 49.8618C48.1729 50.4701 48.666 50.9634 49.2744 50.9634H51.6244C52.2327 50.9634 52.7259 50.4702 52.7259 49.8618C52.7259 49.2534 52.2328 48.7603 51.6244 48.7603Z" fill="#ffffff"/>
<path d="M25.6911 40.3065L25.3552 37.956C25.2692 37.3537 24.7116 36.9352 24.109 37.0212C23.5067 37.1073 23.0882 37.6652 23.1743 38.2674L23.5101 40.6179C23.5887 41.1674 24.0598 41.5638 24.5993 41.5638C24.651 41.5638 24.7035 41.5601 24.7564 41.5527C25.3587 41.4666 25.7772 40.9086 25.6911 40.3065Z" fill="#ffffff"/>
<path d="M43.891 37.0212C43.2887 36.935 42.7309 37.3538 42.6448 37.9559L42.309 40.3064C42.2231 40.9087 42.6416 41.4666 43.2438 41.5526C43.2965 41.5601 43.3491 41.5638 43.4009 41.5638C43.9402 41.5638 44.4115 41.1672 44.4901 40.6179L44.8258 38.2674C44.9116 37.6652 44.4931 37.1073 43.891 37.0212Z" fill="#ffffff"/>
</svg>
