<svg width="25" height="25" viewBox="0 0 25 25" fill="none" xmlns="http://www.w3.org/2000/svg">
<path d="M17.7083 9.16663H7.29167C7.06167 9.16663 6.875 9.35288 6.875 9.58329C6.875 9.81371 7.06167 9.99996 7.29167 9.99996H17.7083C17.9383 9.99996 18.125 9.81371 18.125 9.58329C18.125 9.35288 17.9383 9.16663 17.7083 9.16663Z" fill="white"/>
<path d="M7.29167 6.66671H11.4583C11.6883 6.66671 11.875 6.48046 11.875 6.25004C11.875 6.01962 11.6883 5.83337 11.4583 5.83337H7.29167C7.06167 5.83337 6.875 6.01962 6.875 6.25004C6.875 6.48046 7.06167 6.66671 7.29167 6.66671Z" fill="white"/>
<path d="M17.7083 12.5H7.29167C7.06167 12.5 6.875 12.6863 6.875 12.9167C6.875 13.1471 7.06167 13.3333 7.29167 13.3333H17.7083C17.9383 13.3333 18.125 13.1471 18.125 12.9167C18.125 12.6863 17.9383 12.5 17.7083 12.5Z" fill="white"/>
<path d="M17.7083 15.8334H7.29167C7.06167 15.8334 6.875 16.0196 6.875 16.25C6.875 16.4805 7.06167 16.6667 7.29167 16.6667H17.7083C17.9383 16.6667 18.125 16.4805 18.125 16.25C18.125 16.0196 17.9383 15.8334 17.7083 15.8334Z" fill="white"/>
<path d="M17.7083 19.1666H7.29167C7.06167 19.1666 6.875 19.3529 6.875 19.5833C6.875 19.8137 7.06167 20 7.29167 20H17.7083C17.9383 20 18.125 19.8137 18.125 19.5833C18.125 19.3529 17.9383 19.1666 17.7083 19.1666Z" fill="white"/>
<path d="M16.2143 0H2.7085V25H22.2918V6.0775L16.2143 0ZM16.4585 1.4225L20.8693 5.83333H16.4585V1.4225ZM3.54183 24.1667V0.833333H15.6252V6.66667H21.4585V24.1667H3.54183Z" fill="white"/>
</svg>
